<?xml version="1.0" encoding="UTF-8" standalone="no"?>
<!-- Created with Inkscape (http://www.inkscape.org/) -->

<svg
   xmlns:dc="http://purl.org/dc/elements/1.1/"
   xmlns:cc="http://creativecommons.org/ns#"
   xmlns:rdf="http://www.w3.org/1999/02/22-rdf-syntax-ns#"
   xmlns:svg="http://www.w3.org/2000/svg"
   xmlns="http://www.w3.org/2000/svg"
   xmlns:sodipodi="http://sodipodi.sourceforge.net/DTD/sodipodi-0.dtd"
   xmlns:inkscape="http://www.inkscape.org/namespaces/inkscape"
   width="32"
   height="32"
   id="svg2"
   version="1.1"
   inkscape:version="0.48.5 r10040"
   sodipodi:docname="actionKeyboard.svg"
   inkscape:export-filename="actionKeyboard.png"
   inkscape:export-xdpi="90"
   inkscape:export-ydpi="90">
  <defs
     id="defs4" />
  <sodipodi:namedview
     id="base"
     pagecolor="#ffffff"
     bordercolor="#666666"
     borderopacity="1.0"
     inkscape:pageopacity="1"
     inkscape:pageshadow="2"
     inkscape:zoom="16"
     inkscape:cx="1.760427"
     inkscape:cy="5.1700956"
     inkscape:document-units="px"
     inkscape:current-layer="layer1"
     showgrid="false"
     inkscape:window-width="2560"
     inkscape:window-height="1364"
     inkscape:window-x="-9"
     inkscape:window-y="-9"
     inkscape:window-maximized="1" />
  <metadata
     id="metadata7">
    <rdf:RDF>
      <cc:Work
         rdf:about="">
        <dc:format>image/svg+xml</dc:format>
        <dc:type
           rdf:resource="http://purl.org/dc/dcmitype/StillImage" />
        <dc:title />
      </cc:Work>
    </rdf:RDF>
  </metadata>
  <g
     inkscape:label="Layer 1"
     inkscape:groupmode="layer"
     id="layer1"
     transform="translate(0,-1020.3622)">
    <path
       d="m 0,1020.3622 h 32 v 32 H 0 z"
       id="path5998"
       inkscape:connector-curvature="0"
       style="fill:none" />
    <path
       d="M 26.666669,1027.0289 H 5.3333364 c -1.4666668,0 -2.6533334,1.2 -2.6533334,2.6667 l -0.01334,13.3333 c 0,1.4666 1.2,2.6667 2.6666668,2.6667 H 26.666669 c 1.466668,0 2.666668,-1.2001 2.666668,-2.6667 v -13.3333 c 0,-1.4667 -1.2,-2.6667 -2.666668,-2.6667 z m -11.999999,4 h 2.666666 v 2.6667 H 14.66667 v -2.6667 z m 0,4 h 2.666666 v 2.6667 H 14.66667 v -2.6667 z m -4,-4 h 2.666666 v 2.6667 H 10.66667 v -2.6667 z m 0,4 h 2.666666 v 2.6667 H 10.66667 v -2.6667 z m -1.333334,2.6667 H 6.6666696 v -2.6667 H 9.333336 v 2.6667 z m 0,-4 H 6.6666696 v -2.6667 H 9.333336 v 2.6667 z m 12.000001,9.3333 H 10.66667 v -2.6667 h 10.666667 v 2.6667 z m 0,-5.3333 H 18.66667 v -2.6667 h 2.666667 v 2.6667 z m 0,-4 H 18.66667 v -2.6667 h 2.666667 v 2.6667 z m 4,4 h -2.666668 v -2.6667 h 2.666668 v 2.6667 z m 0,-4 h -2.666668 v -2.6667 h 2.666668 v 2.6667 z"
       id="path4"
       inkscape:connector-curvature="0"
       style="fill:#000000;fill-opacity:1;stroke:none" />
  </g>
</svg>
