<?xml version="1.0" encoding="UTF-8" standalone="no"?>
<!-- Created with Inkscape (http://www.inkscape.org/) -->

<svg
   xmlns:dc="http://purl.org/dc/elements/1.1/"
   xmlns:cc="http://creativecommons.org/ns#"
   xmlns:rdf="http://www.w3.org/1999/02/22-rdf-syntax-ns#"
   xmlns:svg="http://www.w3.org/2000/svg"
   xmlns="http://www.w3.org/2000/svg"
   xmlns:sodipodi="http://sodipodi.sourceforge.net/DTD/sodipodi-0.dtd"
   xmlns:inkscape="http://www.inkscape.org/namespaces/inkscape"
   width="32"
   height="32"
   id="svg2"
   version="1.1"
   inkscape:version="0.48.5 r10040"
   sodipodi:docname="actionSettings.svg"
   inkscape:export-filename="actionNext.png"
   inkscape:export-xdpi="90"
   inkscape:export-ydpi="90">
  <defs
     id="defs4" />
  <sodipodi:namedview
     id="base"
     pagecolor="#ffffff"
     bordercolor="#666666"
     borderopacity="1.0"
     inkscape:pageopacity="1"
     inkscape:pageshadow="2"
     inkscape:zoom="11.313709"
     inkscape:cx="27.490346"
     inkscape:cy="17.170798"
     inkscape:document-units="px"
     inkscape:current-layer="layer1"
     showgrid="false"
     inkscape:window-width="2560"
     inkscape:window-height="1315"
     inkscape:window-x="-9"
     inkscape:window-y="-9"
     inkscape:window-maximized="1" />
  <metadata
     id="metadata7">
    <rdf:RDF>
      <cc:Work
         rdf:about="">
        <dc:format>image/svg+xml</dc:format>
        <dc:type
           rdf:resource="http://purl.org/dc/dcmitype/StillImage" />
        <dc:title />
      </cc:Work>
    </rdf:RDF>
  </metadata>
  <g
     inkscape:label="Layer 1"
     inkscape:groupmode="layer"
     id="layer1"
     transform="translate(0,-1020.3622)">
    <path
       style="fill:none"
       inkscape:connector-curvature="0"
       d="M 4.9432648e-7,1020.3622 H 32 v 32 H 4.9432648e-7 z"
       id="path6595" />
    <path
       inkscape:connector-curvature="0"
       d="m 25.906667,1037.6622 c 0.05333,-0.4267 0.09333,-0.86 0.09333,-1.3 0,-0.44 -0.04,-0.8733 -0.09333,-1.3 l 2.82,-2.2067 c 0.253333,-0.2 0.326667,-0.56 0.16,-0.8533 l -2.666667,-4.62 c -0.166666,-0.2867 -0.513333,-0.4067 -0.813333,-0.2867 l -3.32,1.34 c -0.686667,-0.5266 -1.44,-0.9733 -2.253333,-1.3133 l -0.5,-3.5333 c -0.06,-0.3134 -0.333334,-0.56 -0.666667,-0.56 h -5.333333 c -0.333334,0 -0.606667,0.2466 -0.66,0.56 l -0.5,3.5333 c -0.813334,0.34 -1.566667,0.78 -2.2533336,1.3133 l -3.32,-1.34 c -0.3,-0.1133 -0.6466666,0 -0.8133333,0.2867 l -2.6666666,4.62 c -0.1666667,0.2867 -0.093333,0.6467 0.16,0.8533 l 2.8133333,2.2067 c -0.053333,0.4267 -0.093333,0.86 -0.093333,1.3 0,0.44 0.04,0.8733 0.093333,1.3 l -2.8133333,2.2067 c -0.2533334,0.2 -0.3266667,0.56 -0.16,0.8533 l 2.6666666,4.62 c 0.1666667,0.2867 0.5133333,0.4067 0.8133333,0.2867 l 3.32,-1.34 c 0.6866666,0.5266 1.4399996,0.9733 2.2533336,1.3133 l 0.5,3.5333 c 0.05333,0.3134 0.326666,0.56 0.66,0.56 h 5.333333 c 0.333333,0 0.606667,-0.2466 0.66,-0.56 l 0.5,-3.5333 c 0.813333,-0.34 1.566667,-0.78 2.253333,-1.3133 l 3.32,1.34 c 0.3,0.1133 0.646667,0 0.813334,-0.2867 l 2.666666,-4.62 c 0.166667,-0.2867 0.09333,-0.6467 -0.16,-0.8533 l -2.813333,-2.2067 z M 16,1041.0289 c -2.58,0 -4.666666,-2.0867 -4.666666,-4.6667 0,-2.58 2.086666,-4.6667 4.666666,-4.6667 2.58,0 4.666667,2.0867 4.666667,4.6667 0,2.58 -2.086667,4.6667 -4.666667,4.6667 z"
       id="path6597"
       style="fill:#000000;fill-opacity:1" />
  </g>
</svg>
