<?xml version="1.0" encoding="UTF-8" standalone="no"?>
<!-- Created with Inkscape (http://www.inkscape.org/) -->

<svg
   xmlns:dc="http://purl.org/dc/elements/1.1/"
   xmlns:cc="http://creativecommons.org/ns#"
   xmlns:rdf="http://www.w3.org/1999/02/22-rdf-syntax-ns#"
   xmlns:svg="http://www.w3.org/2000/svg"
   xmlns="http://www.w3.org/2000/svg"
   xmlns:sodipodi="http://sodipodi.sourceforge.net/DTD/sodipodi-0.dtd"
   xmlns:inkscape="http://www.inkscape.org/namespaces/inkscape"
   width="32"
   height="32"
   id="svg2"
   version="1.1"
   inkscape:version="0.48.5 r10040"
   sodipodi:docname="actionVideoPlay.svg"
   inkscape:export-filename="actionInfo.png"
   inkscape:export-xdpi="90"
   inkscape:export-ydpi="90">
  <defs
     id="defs4" />
  <sodipodi:namedview
     id="base"
     pagecolor="#ffffff"
     bordercolor="#666666"
     borderopacity="1.0"
     inkscape:pageopacity="1"
     inkscape:pageshadow="2"
     inkscape:zoom="16"
     inkscape:cx="9.635427"
     inkscape:cy="8.087826"
     inkscape:document-units="px"
     inkscape:current-layer="layer1"
     showgrid="false"
     inkscape:window-width="2560"
     inkscape:window-height="1315"
     inkscape:window-x="-9"
     inkscape:window-y="-9"
     inkscape:window-maximized="1" />
  <metadata
     id="metadata7">
    <rdf:RDF>
      <cc:Work
         rdf:about="">
        <dc:format>image/svg+xml</dc:format>
        <dc:type
           rdf:resource="http://purl.org/dc/dcmitype/StillImage" />
        <dc:title />
      </cc:Work>
    </rdf:RDF>
  </metadata>
  <g
     inkscape:label="Layer 1"
     inkscape:groupmode="layer"
     id="layer1"
     transform="translate(0,-1020.3622)">
    <path
       d="m 0,1020.3622 h 32 v 32 H 0 z"
       id="path4"
       inkscape:connector-curvature="0"
       style="fill:none" />
    <path
       d="m 13.333333,1042.3622 8,-6 -8,-6 v 12 z M 16,1023.0289 c -7.366667,0 -13.333333,5.9666 -13.333333,13.3333 0,7.3667 5.966666,13.3333 13.333333,13.3333 7.366667,0 13.333333,-5.9666 13.333333,-13.3333 0,-7.3667 -5.966666,-13.3333 -13.333333,-13.3333 z m 0,24 c -5.88,0 -10.666667,-4.7867 -10.666667,-10.6667 0,-5.88 4.786667,-10.6667 10.666667,-10.6667 5.88,0 10.666667,4.7867 10.666667,10.6667 0,5.88 -4.786667,10.6667 -10.666667,10.6667 z"
       id="path6"
       inkscape:connector-curvature="0"
       style="fill:#000000;fill-opacity:1" />
  </g>
</svg>
