<?xml version="1.0" encoding="UTF-8" standalone="no"?>
<!-- Created with Inkscape (http://www.inkscape.org/) -->

<svg
   xmlns:dc="http://purl.org/dc/elements/1.1/"
   xmlns:cc="http://creativecommons.org/ns#"
   xmlns:rdf="http://www.w3.org/1999/02/22-rdf-syntax-ns#"
   xmlns:svg="http://www.w3.org/2000/svg"
   xmlns="http://www.w3.org/2000/svg"
   xmlns:sodipodi="http://sodipodi.sourceforge.net/DTD/sodipodi-0.dtd"
   xmlns:inkscape="http://www.inkscape.org/namespaces/inkscape"
   width="32"
   height="32"
   id="svg2"
   version="1.1"
   inkscape:version="0.48.5 r10040"
   sodipodi:docname="actionFitAll.svg"
   inkscape:export-filename="actionFitAll.png"
   inkscape:export-xdpi="90"
   inkscape:export-ydpi="90">
  <defs
     id="defs4">
    <path
       id="a"
       d="M0 0h24v24H0z" />
  </defs>
  <sodipodi:namedview
     id="base"
     pagecolor="#ffffff"
     bordercolor="#666666"
     borderopacity="1.0"
     inkscape:pageopacity="1"
     inkscape:pageshadow="2"
     inkscape:zoom="8"
     inkscape:cx="-1.6362866"
     inkscape:cy="8.6184424"
     inkscape:document-units="px"
     inkscape:current-layer="layer1"
     showgrid="false"
     inkscape:window-width="1920"
     inkscape:window-height="954"
     inkscape:window-x="2551"
     inkscape:window-y="-9"
     inkscape:window-maximized="1" />
  <metadata
     id="metadata7">
    <rdf:RDF>
      <cc:Work
         rdf:about="">
        <dc:format>image/svg+xml</dc:format>
        <dc:type
           rdf:resource="http://purl.org/dc/dcmitype/StillImage" />
        <dc:title />
      </cc:Work>
    </rdf:RDF>
  </metadata>
  <g
     inkscape:label="Layer 1"
     inkscape:groupmode="layer"
     id="layer1"
     transform="translate(0,-1020.3622)">
    <path
       d="m 0,1020.3622 h 32 v 32 H 0 z"
       id="path5998"
       inkscape:connector-curvature="0"
       style="fill:none" />
    <path
       style="fill:#000000"
       inkscape:connector-curvature="0"
       clip-path="url(#b)"
       d="m 20,1024.3622 3.066666,3.0667 -3.853333,3.8266 1.893333,1.8934 3.826667,-3.8534 L 28,1032.3622 v -8 z m -15.9999995,8 3.066666,-3.0667 3.8266665,3.8534 1.893333,-1.8934 -3.8533325,-3.8266 L 12,1024.3622 H 4.0000005 z m 7.9999995,16 -3.0666665,-3.0667 3.8533325,-3.8266 -1.893333,-1.8934 -3.8266665,3.8534 -3.066666,-3.0667 v 8 z m 16,-8 -3.066667,3.0667 -3.826667,-3.8534 -1.893333,1.8934 3.853333,3.8266 L 20,1048.3622 h 7.999999 z"
       id="path3035" />
  </g>
</svg>
