<?xml version="1.0" encoding="UTF-8" standalone="no"?>
<!-- Created with Inkscape (http://www.inkscape.org/) -->

<svg
   xmlns:dc="http://purl.org/dc/elements/1.1/"
   xmlns:cc="http://creativecommons.org/ns#"
   xmlns:rdf="http://www.w3.org/1999/02/22-rdf-syntax-ns#"
   xmlns:svg="http://www.w3.org/2000/svg"
   xmlns="http://www.w3.org/2000/svg"
   xmlns:sodipodi="http://sodipodi.sourceforge.net/DTD/sodipodi-0.dtd"
   xmlns:inkscape="http://www.inkscape.org/namespaces/inkscape"
   width="32"
   height="32"
   id="svg2"
   version="1.1"
   inkscape:version="0.48.5 r10040"
   sodipodi:docname="actionLanguage.svg"
   inkscape:export-filename="actionLanguage.png"
   inkscape:export-xdpi="90"
   inkscape:export-ydpi="90">
  <defs
     id="defs4" />
  <sodipodi:namedview
     id="base"
     pagecolor="#ffffff"
     bordercolor="#666666"
     borderopacity="1.0"
     inkscape:pageopacity="1"
     inkscape:pageshadow="2"
     inkscape:zoom="16"
     inkscape:cx="10.729177"
     inkscape:cy="5.0450956"
     inkscape:document-units="px"
     inkscape:current-layer="layer1"
     showgrid="false"
     inkscape:window-width="2560"
     inkscape:window-height="1364"
     inkscape:window-x="-9"
     inkscape:window-y="-9"
     inkscape:window-maximized="1" />
  <metadata
     id="metadata7">
    <rdf:RDF>
      <cc:Work
         rdf:about="">
        <dc:format>image/svg+xml</dc:format>
        <dc:type
           rdf:resource="http://purl.org/dc/dcmitype/StillImage" />
        <dc:title />
      </cc:Work>
    </rdf:RDF>
  </metadata>
  <g
     inkscape:label="Layer 1"
     inkscape:groupmode="layer"
     id="layer1"
     transform="translate(0,-1020.3622)">
    <path
       d="m 0,1020.3622 h 32 v 32 H 0 z"
       id="path5998"
       inkscape:connector-curvature="0"
       style="fill:none" />
    <path
       d="m 15.993333,1023.0288 c -7.366666,0 -13.326666,5.9667 -13.326666,13.3334 0,7.3667 5.96,13.3334 13.326666,13.3334 7.366667,0 13.34,-5.9667 13.34,-13.3334 0,-7.3667 -5.973333,-13.3334 -13.34,-13.3334 z m 9.233334,8.0001 h -3.933334 c -0.433333,-1.6667 -1.04,-3.2667 -1.84,-4.7467 2.453334,0.84 4.493334,2.54 5.773334,4.7467 z M 16,1025.7421 c 1.113333,1.6 1.98,3.3801 2.546667,5.2868 H 13.453333 C 14.02,1029.1222 14.886667,1027.3422 16,1025.7421 z m -10.32,13.2868 c -0.22,-0.8533 -0.346666,-1.7467 -0.346666,-2.6667 0,-0.9201 0.126666,-1.8133 0.346666,-2.6666 h 4.5 c -0.106667,0.8732 -0.18,1.76 -0.18,2.6666 0,0.9067 0.07333,1.7934 0.186667,2.6667 H 5.68 z m 1.086667,2.6667 H 10.7 c 0.433333,1.6666 1.04,3.2665 1.84,4.7533 -2.453333,-0.84 -4.493333,-2.5468 -5.773333,-4.7533 z M 10.7,1031.0289 H 6.766667 c 1.28,-2.2067 3.32,-3.9133 5.773333,-4.7534 -0.8,1.4866 -1.406667,3.0867 -1.84,4.7534 z m 5.3,15.9532 c -1.106667,-1.5999 -1.973333,-3.38 -2.546667,-5.2865 h 5.093334 c -0.573334,1.9066 -1.44,3.6866 -2.546667,5.2865 z m 3.12,-7.9532 h -6.24 c -0.126667,-0.8733 -0.213333,-1.76 -0.213333,-2.6667 0,-0.9066 0.08667,-1.7934 0.213333,-2.6666 h 6.24 c 0.126667,0.8732 0.213333,1.76 0.213333,2.6666 0,0.9067 -0.08667,1.7934 -0.213333,2.6667 z m 0.34,7.4132 c 0.8,-1.4865 1.406667,-3.0799 1.84,-4.7465 h 3.933333 c -1.286666,2.2065 -3.326666,3.9066 -5.773333,4.7465 z m 2.353333,-7.4132 C 21.92,1038.1556 22,1037.2689 22,1036.3622 c 0,-0.9066 -0.07333,-1.7934 -0.186667,-2.6666 h 4.5 c 0.22,0.8533 0.353334,1.7465 0.353334,2.6666 0,0.92 -0.126667,1.8134 -0.353334,2.6667 h -4.5 z"
       id="path3048"
       inkscape:connector-curvature="0"
       style="fill:#000000;fill-opacity:1;stroke:none" />
  </g>
</svg>
