<?xml version="1.0" encoding="UTF-8" standalone="no"?>
<!-- Created with Inkscape (http://www.inkscape.org/) -->

<svg
   xmlns:dc="http://purl.org/dc/elements/1.1/"
   xmlns:cc="http://creativecommons.org/ns#"
   xmlns:rdf="http://www.w3.org/1999/02/22-rdf-syntax-ns#"
   xmlns:svg="http://www.w3.org/2000/svg"
   xmlns="http://www.w3.org/2000/svg"
   xmlns:sodipodi="http://sodipodi.sourceforge.net/DTD/sodipodi-0.dtd"
   xmlns:inkscape="http://www.inkscape.org/namespaces/inkscape"
   width="32"
   height="32"
   id="svg2"
   version="1.1"
   inkscape:version="0.48.5 r10040"
   sodipodi:docname="actionStreamSubtitlesOff.svg"
   inkscape:export-filename="actionStreamSubtitlesOff.png"
   inkscape:export-xdpi="90"
   inkscape:export-ydpi="90">
  <defs
     id="defs4" />
  <sodipodi:namedview
     id="base"
     pagecolor="#ffffff"
     bordercolor="#666666"
     borderopacity="1.0"
     inkscape:pageopacity="1"
     inkscape:pageshadow="2"
     inkscape:zoom="16"
     inkscape:cx="20.649495"
     inkscape:cy="6.3567748"
     inkscape:document-units="px"
     inkscape:current-layer="layer1"
     showgrid="false"
     inkscape:window-width="2560"
     inkscape:window-height="1364"
     inkscape:window-x="-9"
     inkscape:window-y="-9"
     inkscape:window-maximized="1" />
  <metadata
     id="metadata7">
    <rdf:RDF>
      <cc:Work
         rdf:about="">
        <dc:format>image/svg+xml</dc:format>
        <dc:type
           rdf:resource="http://purl.org/dc/dcmitype/StillImage" />
        <dc:title />
      </cc:Work>
    </rdf:RDF>
  </metadata>
  <g
     inkscape:label="Layer 1"
     inkscape:groupmode="layer"
     id="layer1"
     transform="translate(0,-1020.3622)">
    <path
       d="m 0,1020.3622 h 32 v 32 H 0 z"
       id="path4"
       inkscape:connector-curvature="0"
       style="fill:none" />
    <path
       style="fill:#000000;fill-opacity:1"
       d="M 5.34375 5.34375 C 3.8704167 5.34375 2.65625 6.5267 2.65625 8 L 2.65625 24 C 2.65625 25.4733 3.8704167 26.65625 5.34375 26.65625 L 26.65625 26.65625 L 24 24 L 21.34375 24 L 21.34375 21.34375 L 18.65625 18.65625 L 13.34375 18.65625 L 13.34375 16 L 16 16 L 13.0625 13.0625 L 6.875 6.875 L 5.34375 5.34375 z M 8.75 5.34375 L 19.40625 16 L 26.65625 16 L 26.65625 18.65625 L 22.0625 18.65625 L 24.75 21.34375 L 26.65625 21.34375 L 26.65625 23.25 L 28.875 25.46875 C 29.153405 25.047558 29.34375 24.542929 29.34375 24 L 29.34375 8 C 29.34375 6.5267 28.129583 5.34375 26.65625 5.34375 L 8.75 5.34375 z M 5.34375 16 L 10.65625 16 L 10.65625 18.65625 L 5.34375 18.65625 L 5.34375 16 z M 5.34375 21.34375 L 18.65625 21.34375 L 18.65625 24 L 5.34375 24 L 5.34375 21.34375 z "
       transform="translate(0,1020.3622)"
       id="path6" />
    <path
       id="path3122"
       d="m 4.6875,1025.0341 -1.71875,1.6875 0.5,0.5 6.1875,6.1875 8.78125,8.7813 5.5,5.5 1.71875,-1.6875 -20.96875,-20.9688 z"
       inkscape:connector-curvature="0"
       style="fill:#000000;fill-opacity:1;stroke:none" />
  </g>
</svg>
