<?xml version="1.0" encoding="UTF-8" standalone="no"?>
<!-- Created with Inkscape (http://www.inkscape.org/) -->

<svg
   xmlns:dc="http://purl.org/dc/elements/1.1/"
   xmlns:cc="http://creativecommons.org/ns#"
   xmlns:rdf="http://www.w3.org/1999/02/22-rdf-syntax-ns#"
   xmlns:svg="http://www.w3.org/2000/svg"
   xmlns="http://www.w3.org/2000/svg"
   xmlns:sodipodi="http://sodipodi.sourceforge.net/DTD/sodipodi-0.dtd"
   xmlns:inkscape="http://www.inkscape.org/namespaces/inkscape"
   width="32"
   height="32"
   id="svg2"
   version="1.1"
   inkscape:version="0.48.5 r10040"
   sodipodi:docname="actionVideoPlaylistOff.svg"
   inkscape:export-filename="actionInfo.png"
   inkscape:export-xdpi="90"
   inkscape:export-ydpi="90">
  <defs
     id="defs4" />
  <sodipodi:namedview
     id="base"
     pagecolor="#ffffff"
     bordercolor="#666666"
     borderopacity="1.0"
     inkscape:pageopacity="1"
     inkscape:pageshadow="2"
     inkscape:zoom="16"
     inkscape:cx="7.604177"
     inkscape:cy="11.587826"
     inkscape:document-units="px"
     inkscape:current-layer="layer1"
     showgrid="false"
     inkscape:window-width="2560"
     inkscape:window-height="1364"
     inkscape:window-x="-9"
     inkscape:window-y="-9"
     inkscape:window-maximized="1" />
  <metadata
     id="metadata7">
    <rdf:RDF>
      <cc:Work
         rdf:about="">
        <dc:format>image/svg+xml</dc:format>
        <dc:type
           rdf:resource="http://purl.org/dc/dcmitype/StillImage" />
        <dc:title />
      </cc:Work>
    </rdf:RDF>
  </metadata>
  <g
     inkscape:label="Layer 1"
     inkscape:groupmode="layer"
     id="layer1"
     transform="translate(0,-1020.3622)">
    <path
       style="fill:#000000;fill-opacity:1"
       d="M 4 9.34375 L 4 12 L 6.65625 12 L 6.65625 9.34375 L 4 9.34375 z M 12.71875 9.34375 L 15.375 12 L 28 12 L 28 9.34375 L 12.71875 9.34375 z M 9.34375 9.375 L 9.34375 12 L 11.96875 12 L 9.34375 9.375 z M 4 14.65625 L 4 17.34375 L 6.65625 17.34375 L 6.65625 14.65625 L 4 14.65625 z M 9.34375 14.65625 L 9.34375 17.34375 L 17.3125 17.34375 L 14.625 14.65625 L 9.34375 14.65625 z M 18.03125 14.65625 L 20.71875 17.34375 L 28 17.34375 L 28 14.65625 L 18.03125 14.65625 z M 4 20 L 4 22.65625 L 6.65625 22.65625 L 6.65625 20 L 4 20 z M 9.34375 20 L 9.34375 22.65625 L 22.625 22.65625 L 21.8125 21.84375 L 19.96875 20 L 9.34375 20 z M 23.375 20 L 26.03125 22.65625 L 28 22.65625 L 28 20 L 23.375 20 z "
       transform="translate(0,1020.3622)"
       id="path4" />
    <path
       d="m 0,1020.3622 h 32 v 32 H 0 z"
       id="path6"
       inkscape:connector-curvature="0"
       style="fill:none" />
    <path
       id="path3122"
       d="m 4.6875,1025.0341 -1.71875,1.6875 0.5,0.5 6.1875,6.1875 8.78125,8.7813 5.5,5.5 1.71875,-1.6875 -20.96875,-20.9688 z"
       inkscape:connector-curvature="0"
       style="fill:#000000;fill-opacity:1;stroke:none" />
  </g>
</svg>
