<?xml version="1.0" encoding="UTF-8" standalone="no"?>
<!-- Created with Inkscape (http://www.inkscape.org/) -->

<svg
   xmlns:dc="http://purl.org/dc/elements/1.1/"
   xmlns:cc="http://creativecommons.org/ns#"
   xmlns:rdf="http://www.w3.org/1999/02/22-rdf-syntax-ns#"
   xmlns:svg="http://www.w3.org/2000/svg"
   xmlns="http://www.w3.org/2000/svg"
   xmlns:sodipodi="http://sodipodi.sourceforge.net/DTD/sodipodi-0.dtd"
   xmlns:inkscape="http://www.inkscape.org/namespaces/inkscape"
   width="32"
   height="32"
   id="svg2"
   version="1.1"
   inkscape:version="0.48.5 r10040"
   sodipodi:docname="actionDisplayRatio.svg"
   inkscape:export-filename="actionInfo.png"
   inkscape:export-xdpi="90"
   inkscape:export-ydpi="90">
  <defs
     id="defs4" />
  <sodipodi:namedview
     id="base"
     pagecolor="#ffffff"
     bordercolor="#666666"
     borderopacity="1.0"
     inkscape:pageopacity="1"
     inkscape:pageshadow="2"
     inkscape:zoom="16"
     inkscape:cx="-12.927073"
     inkscape:cy="11.761036"
     inkscape:document-units="px"
     inkscape:current-layer="layer1"
     showgrid="false"
     inkscape:window-width="2560"
     inkscape:window-height="1315"
     inkscape:window-x="-9"
     inkscape:window-y="-9"
     inkscape:window-maximized="1" />
  <metadata
     id="metadata7">
    <rdf:RDF>
      <cc:Work
         rdf:about="">
        <dc:format>image/svg+xml</dc:format>
        <dc:type
           rdf:resource="http://purl.org/dc/dcmitype/StillImage" />
        <dc:title />
      </cc:Work>
    </rdf:RDF>
  </metadata>
  <g
     inkscape:label="Layer 1"
     inkscape:groupmode="layer"
     id="layer1"
     transform="translate(0,-1020.3622)">
    <path
       d="m 25.333333,1036.3622 h -2.666666 v 4 h -4 v 2.6667 h 6.666666 v -6.6667 z m -16,-4 h 4 v -2.6667 H 6.666667 v 6.6667 h 2.666666 v -4 z M 28,1024.3622 H 4 c -1.473333,0 -2.666667,1.1933 -2.666667,2.6667 v 18.6666 c 0,1.4734 1.193334,2.6667 2.666667,2.6667 h 24 c 1.473333,0 2.666667,-1.1933 2.666667,-2.6667 v -18.6666 c 0,-1.4734 -1.193334,-2.6667 -2.666667,-2.6667 z m 0,21.3533 H 4 v -18.7066 h 24 v 18.7066 z"
       id="path4"
       inkscape:connector-curvature="0"
       style="fill:#000000;fill-opacity:1" />
    <path
       d="m 0,1020.3622 h 32 v 32 H 0 z"
       id="path6"
       inkscape:connector-curvature="0"
       style="fill:none" />
  </g>
</svg>
