<?xml version="1.0" encoding="UTF-8" standalone="no"?>
<!-- Created with Inkscape (http://www.inkscape.org/) -->

<svg
   xmlns:dc="http://purl.org/dc/elements/1.1/"
   xmlns:cc="http://creativecommons.org/ns#"
   xmlns:rdf="http://www.w3.org/1999/02/22-rdf-syntax-ns#"
   xmlns:svg="http://www.w3.org/2000/svg"
   xmlns="http://www.w3.org/2000/svg"
   xmlns:sodipodi="http://sodipodi.sourceforge.net/DTD/sodipodi-0.dtd"
   xmlns:inkscape="http://www.inkscape.org/namespaces/inkscape"
   width="32"
   height="32"
   id="svg2"
   version="1.1"
   inkscape:version="0.48.5 r10040"
   sodipodi:docname="actionResetPlacement.svg"
   inkscape:export-filename="actionResetPlacement.png"
   inkscape:export-xdpi="90"
   inkscape:export-ydpi="90">
  <defs
     id="defs4" />
  <sodipodi:namedview
     id="base"
     pagecolor="#ffffff"
     bordercolor="#666666"
     borderopacity="1.0"
     inkscape:pageopacity="1"
     inkscape:pageshadow="2"
     inkscape:zoom="11.313709"
     inkscape:cx="16.853459"
     inkscape:cy="21.515828"
     inkscape:document-units="px"
     inkscape:current-layer="layer1"
     showgrid="false"
     inkscape:window-width="2560"
     inkscape:window-height="1364"
     inkscape:window-x="-9"
     inkscape:window-y="-9"
     inkscape:window-maximized="1" />
  <metadata
     id="metadata7">
    <rdf:RDF>
      <cc:Work
         rdf:about="">
        <dc:format>image/svg+xml</dc:format>
        <dc:type
           rdf:resource="http://purl.org/dc/dcmitype/StillImage" />
        <dc:title />
      </cc:Work>
    </rdf:RDF>
  </metadata>
  <g
     inkscape:label="Layer 1"
     inkscape:groupmode="layer"
     id="layer1"
     transform="translate(0,-1020.3622)">
    <path
       d="m 0,1020.3622 h 32 v 32 H 0 z"
       id="path5998"
       inkscape:connector-curvature="0"
       style="fill:none" />
    <path
       style="fill:#000000;fill-opacity:1;stroke:none"
       d="M 16 1.34375 L 10.375 7 L 11.375 8 L 13.34375 8 L 13.34375 9.96875 L 15.375 12 L 18.65625 12 L 18.65625 8 L 22.65625 8 L 16 1.34375 z M 8 9.34375 L 1.34375 16 L 8 22.65625 L 8 18.65625 L 12 18.65625 L 12 13.34375 L 8 13.34375 L 8 9.34375 z M 24 9.34375 L 24 13.34375 L 20 13.34375 L 20 16.625 L 22.03125 18.65625 L 24 18.65625 L 24 20.625 L 25 21.625 L 30.65625 16 L 24 9.34375 z M 13.34375 20 L 13.34375 24 L 9.34375 24 L 16 30.65625 L 22.65625 24 L 18.65625 24 L 18.65625 20 L 13.34375 20 z "
       transform="translate(0,1020.3622)"
       id="path4" />
    <path
       id="path3122"
       d="m 4.6875,1025.0341 -1.71875,1.6875 0.5,0.5 6.1875,6.1875 8.78125,8.7813 5.5,5.5 1.71875,-1.6875 -20.96875,-20.9688 z"
       inkscape:connector-curvature="0"
       style="fill:#000000;fill-opacity:1;stroke:none" />
  </g>
</svg>
