<?xml version="1.0" encoding="UTF-8" standalone="no"?>
<!-- Created with Inkscape (http://www.inkscape.org/) -->

<svg
   xmlns:dc="http://purl.org/dc/elements/1.1/"
   xmlns:cc="http://creativecommons.org/ns#"
   xmlns:rdf="http://www.w3.org/1999/02/22-rdf-syntax-ns#"
   xmlns:svg="http://www.w3.org/2000/svg"
   xmlns="http://www.w3.org/2000/svg"
   xmlns:sodipodi="http://sodipodi.sourceforge.net/DTD/sodipodi-0.dtd"
   xmlns:inkscape="http://www.inkscape.org/namespaces/inkscape"
   width="32"
   height="32"
   id="svg2"
   version="1.1"
   inkscape:version="0.48.5 r10040"
   sodipodi:docname="actionStreamAudioOff.svg"
   inkscape:export-filename="actionStreamAudioOff.png"
   inkscape:export-xdpi="90"
   inkscape:export-ydpi="90">
  <defs
     id="defs4" />
  <sodipodi:namedview
     id="base"
     pagecolor="#ffffff"
     bordercolor="#666666"
     borderopacity="1.0"
     inkscape:pageopacity="1"
     inkscape:pageshadow="2"
     inkscape:zoom="11.313709"
     inkscape:cx="62.163495"
     inkscape:cy="13.93474"
     inkscape:document-units="px"
     inkscape:current-layer="layer1"
     showgrid="false"
     inkscape:window-width="2560"
     inkscape:window-height="1364"
     inkscape:window-x="-9"
     inkscape:window-y="-9"
     inkscape:window-maximized="1" />
  <metadata
     id="metadata7">
    <rdf:RDF>
      <cc:Work
         rdf:about="">
        <dc:format>image/svg+xml</dc:format>
        <dc:type
           rdf:resource="http://purl.org/dc/dcmitype/StillImage" />
        <dc:title />
      </cc:Work>
    </rdf:RDF>
  </metadata>
  <g
     inkscape:label="Layer 1"
     inkscape:groupmode="layer"
     id="layer1"
     transform="translate(0,-1020.3622)">
    <path
       d="m 0,1020.3622 h 32 v 32 H 0 z"
       id="path4"
       inkscape:connector-curvature="0"
       style="fill:none" />
    <path
       style="fill:#000000;fill-opacity:1"
       d="M 4 8 L 4 10.65625 L 10.625 10.65625 L 7.96875 8 L 4 8 z M 11.375 8 L 14.03125 10.65625 L 20 10.65625 L 20 8 L 11.375 8 z M 22.65625 8 L 22.65625 18.90625 C 22.478039 18.841203 22.311431 18.790898 22.125 18.75 L 25.34375 21.96875 L 25.34375 10.65625 L 29.34375 10.65625 L 29.34375 8 L 22.65625 8 z M 4 13.34375 L 4 16 L 15.96875 16 L 13.3125 13.34375 L 4 13.34375 z M 16.71875 13.34375 L 19.375 16 L 20 16 L 20 13.34375 L 16.71875 13.34375 z M 4 18.65625 L 4 21.34375 L 14.65625 21.34375 L 14.65625 18.65625 L 4 18.65625 z M 19.25 19.28125 C 18.108742 19.986285 17.34375 21.218205 17.34375 22.65625 C 17.34375 24.86285 19.137084 26.65625 21.34375 26.65625 C 22.781773 26.65625 24.013708 25.891259 24.71875 24.75 L 21.8125 21.84375 L 19.25 19.28125 z "
       transform="translate(0,1020.3622)"
       id="path6" />
    <path
       id="path3122"
       d="m 4.6875,1025.0341 -1.71875,1.6875 0.5,0.5 6.1875,6.1875 8.78125,8.7813 5.5,5.5 1.71875,-1.6875 -20.96875,-20.9688 z"
       inkscape:connector-curvature="0"
       style="fill:#000000;fill-opacity:1;stroke:none" />
  </g>
</svg>
