<?xml version="1.0" encoding="UTF-8" standalone="no"?>
<!-- Created with Inkscape (http://www.inkscape.org/) -->

<svg
   xmlns:dc="http://purl.org/dc/elements/1.1/"
   xmlns:cc="http://creativecommons.org/ns#"
   xmlns:rdf="http://www.w3.org/1999/02/22-rdf-syntax-ns#"
   xmlns:svg="http://www.w3.org/2000/svg"
   xmlns="http://www.w3.org/2000/svg"
   xmlns:sodipodi="http://sodipodi.sourceforge.net/DTD/sodipodi-0.dtd"
   xmlns:inkscape="http://www.inkscape.org/namespaces/inkscape"
   width="32"
   height="32"
   id="svg2"
   version="1.1"
   inkscape:version="0.91 r13725"
   sodipodi:docname="actionVideoFullscreen3dOn.svg"
   inkscape:export-filename="actionVideoFullscreen3dOn.png"
   inkscape:export-xdpi="90"
   inkscape:export-ydpi="90">
  <defs
     id="defs4" />
  <sodipodi:namedview
     id="base"
     pagecolor="#ffffff"
     bordercolor="#666666"
     borderopacity="1.0"
     inkscape:pageopacity="1"
     inkscape:pageshadow="2"
     inkscape:zoom="8"
     inkscape:cx="29.269528"
     inkscape:cy="17.709292"
     inkscape:document-units="px"
     inkscape:current-layer="layer1"
     showgrid="false"
     inkscape:window-width="1920"
     inkscape:window-height="976"
     inkscape:window-x="2552"
     inkscape:window-y="-8"
     inkscape:window-maximized="1" />
  <metadata
     id="metadata7">
    <rdf:RDF>
      <cc:Work
         rdf:about="">
        <dc:format>image/svg+xml</dc:format>
        <dc:type
           rdf:resource="http://purl.org/dc/dcmitype/StillImage" />
        <dc:title />
      </cc:Work>
    </rdf:RDF>
  </metadata>
  <g
     inkscape:label="Layer 1"
     inkscape:groupmode="layer"
     id="layer1"
     transform="translate(0,-1020.3622)">
    <path
       d="m 0,1020.3622 h 32 v 32 H 0 z"
       id="path6"
       inkscape:connector-curvature="0"
       style="fill:none" />
    <path
       d="m 9.3333335,1039.0289 h -2.666667 v 6.6667 h 6.6666665 v -2.6667 H 9.3333335 v -4 z m -2.666667,-5.3333 h 2.666667 v -4 h 3.9999995 v -2.6667 H 6.6666665 v 6.6667 z m 15.9999985,9.3333 h -3.999998 v 2.6667 h 6.666667 v -6.6667 h -2.666669 v 4 z m -3.999998,-16 v 2.6667 h 3.999998 v 4 h 2.666669 v -6.6667 h -6.666667 z"
       id="path6-1"
       style="fill:#000000;fill-opacity:1;stroke:none"
       inkscape:connector-curvature="0" />
    <g
       style="font-style:normal;font-variant:normal;font-weight:normal;font-stretch:normal;font-size:12.5px;line-height:125%;font-family:Candara;-inkscape-font-specification:'Candara, Normal';text-align:start;letter-spacing:0px;word-spacing:0px;writing-mode:lr-tb;text-anchor:start;fill:#000000;fill-opacity:1;stroke:none;stroke-width:1px;stroke-linecap:butt;stroke-linejoin:miter;stroke-opacity:1"
       id="text4244">
      <path
         sodipodi:type="inkscape:offset"
         inkscape:radius="0.2892969"
         inkscape:original="M 12.126953 1033.0137 C 11.335938 1033.0137 10.812989 1033.0608 10.556641 1033.1523 L 10.457031 1034.168 C 10.775635 1034.102 11.140625 1034.0684 11.550781 1034.0684 C 12.466309 1034.0684 12.923828 1034.3613 12.923828 1034.9473 C 12.923828 1035.2695 12.732178 1035.5354 12.347656 1035.7441 C 11.966797 1035.9492 11.473389 1036.0527 10.869141 1036.0527 L 10.753906 1036.9355 C 12.387207 1036.9355 13.203125 1037.3725 13.203125 1038.2441 C 13.203125 1038.7751 12.912353 1039.2081 12.330078 1039.5449 C 11.769775 1039.8748 11.008057 1040.0708 10.044922 1040.1328 L 10.193359 1041.0508 C 11.632568 1040.9665 12.75708 1040.6106 13.566406 1039.9844 C 14.273194 1039.4387 14.626953 1038.7942 14.626953 1038.0508 C 14.626953 1037.5564 14.473633 1037.1394 14.166016 1036.7988 C 13.862061 1036.4582 13.465576 1036.2466 12.978516 1036.166 L 12.978516 1036.084 C 13.322754 1035.9741 13.613525 1035.7824 13.851562 1035.5078 C 14.111573 1035.2075 14.242188 1034.8784 14.242188 1034.5195 C 14.242188 1034.0654 14.070801 1033.7048 13.726562 1033.4375 C 13.353027 1033.1556 12.819092 1033.0137 12.126953 1033.0137 z "
         style="font-style:normal;font-variant:normal;font-weight:bold;font-stretch:normal;font-size:11.25px;line-height:125%;font-family:Candara;-inkscape-font-specification:'Candara Bold';text-align:start;letter-spacing:0px;writing-mode:lr-tb;text-anchor:start"
         id="path4279"
         d="m 12.126953,1032.7246 c -0.802499,0 -1.323908,0.032 -1.667969,0.1543 a 0.28932582,0.28932582 0 0 0 -0.189453,0.2461 l -0.09961,1.0156 a 0.28932582,0.28932582 0 0 0 0.345703,0.3106 c 0.294727,-0.061 0.6408,-0.094 1.035156,-0.094 0.426913,0 0.717999,0.075 0.873047,0.1738 0.155048,0.099 0.210938,0.1984 0.210938,0.4161 0,0.2074 -0.09638,0.3642 -0.425782,0.5429 -0.324669,0.1745 -0.769491,0.2735 -1.339843,0.2735 a 0.28932582,0.28932582 0 0 0 -0.28711,0.2519 l -0.115234,0.8828 a 0.28932582,0.28932582 0 0 0 0.287109,0.3262 c 0.79085,0 1.363715,0.1126 1.701172,0.293 0.337457,0.1804 0.458984,0.381 0.458984,0.7265 0,0.4254 -0.203132,0.7469 -0.728515,1.0508 a 0.28932582,0.28932582 0 0 0 -0.002,0 c -0.504689,0.2972 -1.224316,0.4887 -2.158203,0.5489 a 0.28932582,0.28932582 0 0 0 -0.2656254,0.3359 l 0.1484375,0.918 a 0.28932582,0.28932582 0 0 0 0.3027349,0.2421 c 1.477876,-0.086 2.663259,-0.4538 3.533203,-1.1269 0.757042,-0.5845 1.171875,-1.3269 1.171875,-2.1621 0,-0.5542 -0.180864,-1.0531 -0.535157,-1.4453 -0.207422,-0.2321 -0.467212,-0.396 -0.75,-0.5235 0.160417,-0.1083 0.309311,-0.2346 0.439453,-0.3847 0.297093,-0.3432 0.460938,-0.7487 0.460938,-1.1778 0,-0.5269 -0.219904,-0.9944 -0.626953,-1.3105 a 0.28932582,0.28932582 0 0 0 -0.0039,-0 c -0.442082,-0.3336 -1.041758,-0.4824 -1.773438,-0.4824 z" />
      <path
         sodipodi:type="inkscape:offset"
         inkscape:radius="0.25002813"
         inkscape:original="M 18.185547 1031.6738 C 18.090332 1031.6738 17.887451 1031.6807 17.576172 1031.6914 C 17.264893 1031.7021 17.030518 1031.707 16.873047 1031.707 L 15.912109 1031.707 C 15.959716 1032.6482 15.984375 1033.7842 15.984375 1035.1172 C 15.984375 1036.5052 15.959716 1037.7534 15.912109 1038.8594 C 16.864258 1038.9034 17.610352 1038.9238 18.152344 1038.9238 C 19.353516 1038.9238 20.288574 1038.5361 20.955078 1037.7598 C 21.621149 1036.9839 21.954646 1036.0763 21.955078 1035.0371 C 21.955078 1034.1143 21.655518 1033.3233 21.058594 1032.6641 C 20.465332 1032.0049 19.507569 1031.6738 18.185547 1031.6738 z M 17.960938 1032.7734 C 18.803222 1032.7734 19.429687 1033.0146 19.839844 1033.498 C 20.25 1033.9778 20.455078 1034.5684 20.455078 1035.2715 C 20.455078 1035.9746 20.263672 1036.5718 19.882812 1037.0625 C 19.505615 1037.5496 18.924072 1037.793 18.136719 1037.793 C 17.898681 1037.793 17.659912 1037.768 17.421875 1037.7207 C 17.385255 1036.8601 17.367188 1035.9925 17.367188 1035.1172 C 17.367188 1034.3189 17.34912 1033.5547 17.3125 1032.8223 C 17.587159 1032.7896 17.803467 1032.7734 17.960938 1032.7734 z "
         style="font-style:normal;font-variant:normal;font-weight:bold;font-stretch:normal;font-size:11.25px;line-height:125%;font-family:Candara;-inkscape-font-specification:'Candara Bold';text-align:start;letter-spacing:0px;writing-mode:lr-tb;text-anchor:start"
         id="path4281"
         d="m 18.185547,1031.4238 c -0.107294,0 -0.305869,0.01 -0.617188,0.018 -0.309591,0.011 -0.543028,0.016 -0.695312,0.016 l -0.960938,0 a 0.25005314,0.25005314 0 0 0 -0.25,0.2618 c 0.04732,0.9354 0.07227,2.0685 0.07227,3.3984 0,1.385 -0.02485,2.6308 -0.07227,3.7324 a 0.25005314,0.25005314 0 0 0 0.238282,0.2598 c 0.954605,0.044 1.703687,0.064 2.251953,0.064 1.254972,0 2.277196,-0.4192 2.992187,-1.2519 0.701972,-0.8177 1.060093,-1.7922 1.060547,-2.8848 0,-0.9769 -0.325152,-1.8389 -0.960937,-2.541 -0.654923,-0.7277 -1.694826,-1.0723 -3.058594,-1.0723 z m -0.224609,1.5996 c 0.794551,0 1.332055,0.2178 1.6875,0.6368 a 0.25005314,0.25005314 0 0 0 0.002,0 c 0.371054,0.434 0.554687,0.9568 0.554687,1.6113 0,0.6577 -0.17404,1.1935 -0.519531,1.6387 -0.325716,0.4206 -0.813004,0.6328 -1.548828,0.6328 -0.155237,0 -0.312039,-0.027 -0.46875,-0.049 -0.03059,-0.7864 -0.05078,-1.5779 -0.05078,-2.3769 0,-0.7179 -0.01936,-1.399 -0.04883,-2.0645 0.142134,-0.013 0.303611,-0.029 0.392579,-0.029 z" />
    </g>
  </g>
</svg>
