<?xml version="1.0" encoding="UTF-8" standalone="no"?>
<!-- Created with Inkscape (http://www.inkscape.org/) -->

<svg
   xmlns:dc="http://purl.org/dc/elements/1.1/"
   xmlns:cc="http://creativecommons.org/ns#"
   xmlns:rdf="http://www.w3.org/1999/02/22-rdf-syntax-ns#"
   xmlns:svg="http://www.w3.org/2000/svg"
   xmlns="http://www.w3.org/2000/svg"
   xmlns:sodipodi="http://sodipodi.sourceforge.net/DTD/sodipodi-0.dtd"
   xmlns:inkscape="http://www.inkscape.org/namespaces/inkscape"
   width="32"
   height="32"
   id="svg2"
   version="1.1"
   inkscape:version="0.48.5 r10040"
   sodipodi:docname="actionZoomOut.svg"
   inkscape:export-filename="actionZoomOut.png"
   inkscape:export-xdpi="90"
   inkscape:export-ydpi="90">
  <defs
     id="defs4" />
  <sodipodi:namedview
     id="base"
     pagecolor="#ffffff"
     bordercolor="#666666"
     borderopacity="1.0"
     inkscape:pageopacity="1"
     inkscape:pageshadow="2"
     inkscape:zoom="16"
     inkscape:cx="-12.455424"
     inkscape:cy="9.9889634"
     inkscape:document-units="px"
     inkscape:current-layer="layer1"
     showgrid="false"
     inkscape:window-width="2560"
     inkscape:window-height="1364"
     inkscape:window-x="-9"
     inkscape:window-y="-9"
     inkscape:window-maximized="1" />
  <metadata
     id="metadata7">
    <rdf:RDF>
      <cc:Work
         rdf:about="">
        <dc:format>image/svg+xml</dc:format>
        <dc:type
           rdf:resource="http://purl.org/dc/dcmitype/StillImage" />
        <dc:title />
      </cc:Work>
    </rdf:RDF>
  </metadata>
  <g
     inkscape:label="Layer 1"
     inkscape:groupmode="layer"
     id="layer1"
     transform="translate(0,-1020.3622)">
    <path
       d="m 21.006666,1039.3689 h -1.053332 l -0.373334,-0.36 c 1.306666,-1.52 2.093334,-3.4934 2.093334,-5.64 0,-4.7867 -3.880001,-8.6667 -8.666667,-8.6667 -4.786667,0 -8.666667,3.88 -8.666667,8.6667 0,4.7866 3.88,8.6666 8.666667,8.6666 2.146666,0 4.12,-0.7866 5.639999,-2.0933 l 0.36,0.3733 v 1.0534 l 6.666668,6.6533 1.986666,-1.9867 -6.653334,-6.6666 z m -7.999999,0 c -3.3200004,0 -6.0000004,-2.68 -6.0000004,-6 0,-3.32 2.68,-6 6.0000004,-6 3.32,0 5.999999,2.68 5.999999,6 0,3.32 -2.679999,6 -5.999999,6 z m -3.3333336,-6.6667 H 16.34 v 1.3333 H 9.6733334 z"
       id="path6"
       inkscape:connector-curvature="0"
       style="fill:#000000;fill-opacity:1;stroke:none" />
    <path
       d="m 0,1020.3622 h 32 v 32 H 0 z"
       id="path5998"
       inkscape:connector-curvature="0"
       style="fill:none" />
  </g>
</svg>
