<?xml version="1.0" encoding="UTF-8" standalone="no"?>
<!-- Created with Inkscape (http://www.inkscape.org/) -->

<svg
   xmlns:dc="http://purl.org/dc/elements/1.1/"
   xmlns:cc="http://creativecommons.org/ns#"
   xmlns:rdf="http://www.w3.org/1999/02/22-rdf-syntax-ns#"
   xmlns:svg="http://www.w3.org/2000/svg"
   xmlns="http://www.w3.org/2000/svg"
   xmlns:sodipodi="http://sodipodi.sourceforge.net/DTD/sodipodi-0.dtd"
   xmlns:inkscape="http://www.inkscape.org/namespaces/inkscape"
   width="32"
   height="32"
   id="svg2"
   version="1.1"
   inkscape:version="0.48.5 r10040"
   sodipodi:docname="actionInterpolation.svg"
   inkscape:export-filename="actionInterpolation.png"
   inkscape:export-xdpi="90"
   inkscape:export-ydpi="90">
  <defs
     id="defs4" />
  <sodipodi:namedview
     id="base"
     pagecolor="#ffffff"
     bordercolor="#666666"
     borderopacity="1.0"
     inkscape:pageopacity="1"
     inkscape:pageshadow="2"
     inkscape:zoom="16"
     inkscape:cx="-9.583323"
     inkscape:cy="5.1700956"
     inkscape:document-units="px"
     inkscape:current-layer="layer1"
     showgrid="false"
     inkscape:window-width="2560"
     inkscape:window-height="1364"
     inkscape:window-x="-9"
     inkscape:window-y="-9"
     inkscape:window-maximized="1" />
  <metadata
     id="metadata7">
    <rdf:RDF>
      <cc:Work
         rdf:about="">
        <dc:format>image/svg+xml</dc:format>
        <dc:type
           rdf:resource="http://purl.org/dc/dcmitype/StillImage" />
        <dc:title />
      </cc:Work>
    </rdf:RDF>
  </metadata>
  <g
     inkscape:label="Layer 1"
     inkscape:groupmode="layer"
     id="layer1"
     transform="translate(0,-1020.3622)">
    <path
       d="m 0,1020.3622 h 32 v 32 H 0 z"
       id="path5998"
       inkscape:connector-curvature="0"
       style="fill:none" />
    <path
       d="m 6.666667,1043.6955 c 1.106666,0 2,-0.8933 2,-2 0,-1.1066 -0.893334,-2 -2,-2 -1.106667,0 -2,0.8934 -2,2 0,1.1067 0.893333,2 2,2 z m 5.333333,-6 c 0.733333,0 1.333333,-0.6 1.333333,-1.3333 0,-0.7333 -0.6,-1.3333 -1.333333,-1.3333 -0.733333,0 -1.333333,0.6 -1.333333,1.3333 0,0.7333 0.6,1.3333 1.333333,1.3333 z m 0,-5.3333 c 0.733333,0 1.333333,-0.6 1.333333,-1.3333 0,-0.7334 -0.6,-1.3334 -1.333333,-1.3334 -0.733333,0 -1.333333,0.6 -1.333333,1.3334 0,0.7333 0.6,1.3333 1.333333,1.3333 z m -8,16 h 24 v -2.6667 H 4 v 2.6667 z m 2.666667,-15.3333 c 1.106666,0 2,-0.8934 2,-2 0,-1.1067 -0.893334,-2 -2,-2 -1.106667,0 -2,0.8933 -2,2 0,1.1066 0.893333,2 2,2 z m 0,5.3333 c 1.106666,0 2,-0.8933 2,-2 0,-1.1067 -0.893334,-2 -2,-2 -1.106667,0 -2,0.8933 -2,2 0,1.1067 0.893333,2 2,2 z M 12,1043.0289 c 0.733333,0 1.333333,-0.6 1.333333,-1.3334 0,-0.7333 -0.6,-1.3333 -1.333333,-1.3333 -0.733333,0 -1.333333,0.6 -1.333333,1.3333 0,0.7334 0.6,1.3334 1.333333,1.3334 z m 10.666666,-0.6667 c 0.373334,0 0.666668,-0.2933 0.666668,-0.6667 0,-0.3733 -0.293334,-0.6666 -0.666668,-0.6666 -0.373332,0 -0.666666,0.2933 -0.666666,0.6666 0,0.3734 0.293334,0.6667 0.666666,0.6667 z M 4,1024.3622 v 2.6667 h 24 v -2.6667 H 4 z m 18.666666,7.3333 c 0.373334,0 0.666668,-0.2933 0.666668,-0.6666 0,-0.3734 -0.293334,-0.6667 -0.666668,-0.6667 -0.373332,0 -0.666666,0.2933 -0.666666,0.6667 0,0.3733 0.293334,0.6666 0.666666,0.6666 z m 0,5.3334 c 0.373334,0 0.666668,-0.2934 0.666668,-0.6667 0,-0.3733 -0.293334,-0.6667 -0.666668,-0.6667 -0.373332,0 -0.666666,0.2934 -0.666666,0.6667 0,0.3733 0.293334,0.6667 0.666666,0.6667 z m -5.333333,-4.6667 c 0.733334,0 1.333334,-0.6 1.333334,-1.3333 0,-0.7334 -0.6,-1.3334 -1.333334,-1.3334 -0.733333,0 -1.333333,0.6 -1.333333,1.3334 0,0.7333 0.6,1.3333 1.333333,1.3333 z m 0,5.3333 c 0.733334,0 1.333334,-0.6 1.333334,-1.3333 0,-0.7333 -0.6,-1.3333 -1.333334,-1.3333 -0.733333,0 -1.333333,0.6 -1.333333,1.3333 0,0.7333 0.6,1.3333 1.333333,1.3333 z m 0,5.3334 c 0.733334,0 1.333334,-0.6 1.333334,-1.3334 0,-0.7333 -0.6,-1.3333 -1.333334,-1.3333 -0.733333,0 -1.333333,0.6 -1.333333,1.3333 0,0.7334 0.6,1.3334 1.333333,1.3334 z"
       id="path6"
       inkscape:connector-curvature="0"
       style="fill:#000000;fill-opacity:1;stroke:none" />
  </g>
</svg>
