<?xml version="1.0" encoding="UTF-8" standalone="no"?>
<!-- Created with Inkscape (http://www.inkscape.org/) -->

<svg
   xmlns:dc="http://purl.org/dc/elements/1.1/"
   xmlns:cc="http://creativecommons.org/ns#"
   xmlns:rdf="http://www.w3.org/1999/02/22-rdf-syntax-ns#"
   xmlns:svg="http://www.w3.org/2000/svg"
   xmlns="http://www.w3.org/2000/svg"
   xmlns:sodipodi="http://sodipodi.sourceforge.net/DTD/sodipodi-0.dtd"
   xmlns:inkscape="http://www.inkscape.org/namespaces/inkscape"
   width="32"
   height="32"
   id="svg2"
   version="1.1"
   inkscape:version="0.48.5 r10040"
   sodipodi:docname="actionHelp.svg"
   inkscape:export-filename="actionNext.png"
   inkscape:export-xdpi="90"
   inkscape:export-ydpi="90">
  <defs
     id="defs4" />
  <sodipodi:namedview
     id="base"
     pagecolor="#ffffff"
     bordercolor="#666666"
     borderopacity="1.0"
     inkscape:pageopacity="1"
     inkscape:pageshadow="2"
     inkscape:zoom="16"
     inkscape:cx="-4.0087144"
     inkscape:cy="13.345112"
     inkscape:document-units="px"
     inkscape:current-layer="layer1"
     showgrid="false"
     inkscape:window-width="2560"
     inkscape:window-height="1315"
     inkscape:window-x="-9"
     inkscape:window-y="-9"
     inkscape:window-maximized="1" />
  <metadata
     id="metadata7">
    <rdf:RDF>
      <cc:Work
         rdf:about="">
        <dc:format>image/svg+xml</dc:format>
        <dc:type
           rdf:resource="http://purl.org/dc/dcmitype/StillImage" />
        <dc:title />
      </cc:Work>
    </rdf:RDF>
  </metadata>
  <g
     inkscape:label="Layer 1"
     inkscape:groupmode="layer"
     id="layer1"
     transform="translate(0,-1020.3622)">
    <path
       style="fill:none"
       inkscape:connector-curvature="0"
       d="m 0,1020.3622 h 32 v 32 H 0 z"
       id="path5914" />
    <path
       inkscape:connector-curvature="0"
       d="m 16,1023.0289 c -7.366667,0 -13.333333,5.9666 -13.333333,13.3333 0,7.3667 5.966666,13.3333 13.333333,13.3333 7.366667,0 13.333333,-5.9666 13.333333,-13.3333 0,-7.3667 -5.966666,-13.3333 -13.333333,-13.3333 z m 1.333333,22.6666 h -2.666666 v -2.6666 h 2.666666 v 2.6666 z m 2.753334,-10.3266 -1.193334,1.2266 c -0.96,0.96 -1.56,1.7667 -1.56,3.7667 h -2.666666 v -0.6667 c 0,-1.4733 0.6,-2.8066 1.56,-3.7733 l 1.66,-1.68 c 0.48,-0.48 0.78,-1.1467 0.78,-1.88 0,-1.4733 -1.193334,-2.6667 -2.666667,-2.6667 -1.473333,0 -2.666667,1.1934 -2.666667,2.6667 h -2.666666 c 0,-2.9467 2.386666,-5.3333 5.333333,-5.3333 2.946667,0 5.333333,2.3866 5.333333,5.3333 0,1.1733 -0.473333,2.2333 -1.246666,3.0067 z"
       id="path5916"
       style="fill:#000000;fill-opacity:1" />
  </g>
</svg>
