<?xml version="1.0" encoding="UTF-8" standalone="no"?>
<!-- Created with Inkscape (http://www.inkscape.org/) -->

<svg
   xmlns:dc="http://purl.org/dc/elements/1.1/"
   xmlns:cc="http://creativecommons.org/ns#"
   xmlns:rdf="http://www.w3.org/1999/02/22-rdf-syntax-ns#"
   xmlns:svg="http://www.w3.org/2000/svg"
   xmlns="http://www.w3.org/2000/svg"
   xmlns:sodipodi="http://sodipodi.sourceforge.net/DTD/sodipodi-0.dtd"
   xmlns:inkscape="http://www.inkscape.org/namespaces/inkscape"
   width="32"
   height="32"
   id="svg2"
   version="1.1"
   inkscape:version="0.48.5 r10040"
   sodipodi:docname="actionFile.svg"
   inkscape:export-filename="actionFile.png"
   inkscape:export-xdpi="90"
   inkscape:export-ydpi="90">
  <defs
     id="defs4" />
  <sodipodi:namedview
     id="base"
     pagecolor="#ffffff"
     bordercolor="#666666"
     borderopacity="1.0"
     inkscape:pageopacity="1"
     inkscape:pageshadow="2"
     inkscape:zoom="16"
     inkscape:cx="15.611319"
     inkscape:cy="19.490394"
     inkscape:document-units="px"
     inkscape:current-layer="layer1"
     showgrid="false"
     inkscape:window-width="2560"
     inkscape:window-height="1364"
     inkscape:window-x="-9"
     inkscape:window-y="-9"
     inkscape:window-maximized="1" />
  <metadata
     id="metadata7">
    <rdf:RDF>
      <cc:Work
         rdf:about="">
        <dc:format>image/svg+xml</dc:format>
        <dc:type
           rdf:resource="http://purl.org/dc/dcmitype/StillImage" />
        <dc:title />
      </cc:Work>
    </rdf:RDF>
  </metadata>
  <g
     inkscape:label="Layer 1"
     inkscape:groupmode="layer"
     id="layer1"
     transform="translate(0,-1020.3622)">
    <path
       d="m 0,1020.3622 h 32 v 32 H 0 z"
       id="path5998"
       inkscape:connector-curvature="0"
       style="fill:none" />
    <path
       style="fill:#000000;fill-opacity:1;stroke:none"
       d="m 8.0625,1023.034 c -1.4735,0 -2.71875,1.0482 -2.71875,2.6564 l 0,13.3437 0,8 c 0,1.4734 1.18265,2.6563 2.65625,2.6563 l 16,0 c 1.4733,0 2.65625,-1.183 2.65625,-2.6563 l 0,-18.375 -5.75,-5.6251 z m 12.28125,1.3595 4.96875,4.9063 c 0.131547,0.1315 0.05739,0.4375 -0.1875,0.4375 l -4.53125,0 c -0.506916,0.019 -0.65817,-0.2807 -0.6875,-0.7188 l 0,-4.4687 c 0,-0.2934 0.23552,-0.3583 0.4375,-0.1563 z"
       id="path3006"
       inkscape:connector-curvature="0"
       sodipodi:nodetypes="sscssssccsccccccc" />
  </g>
</svg>
