<?xml version="1.0" encoding="UTF-8" standalone="no"?>
<!-- Created with Inkscape (http://www.inkscape.org/) -->

<svg
   xmlns:dc="http://purl.org/dc/elements/1.1/"
   xmlns:cc="http://creativecommons.org/ns#"
   xmlns:rdf="http://www.w3.org/1999/02/22-rdf-syntax-ns#"
   xmlns:svg="http://www.w3.org/2000/svg"
   xmlns="http://www.w3.org/2000/svg"
   xmlns:sodipodi="http://sodipodi.sourceforge.net/DTD/sodipodi-0.dtd"
   xmlns:inkscape="http://www.inkscape.org/namespaces/inkscape"
   width="32"
   height="32"
   id="svg2"
   version="1.1"
   inkscape:version="0.48.5 r10040"
   sodipodi:docname="actionSave.svg"
   inkscape:export-filename="actionSave.png"
   inkscape:export-xdpi="90"
   inkscape:export-ydpi="90">
  <defs
     id="defs4" />
  <sodipodi:namedview
     id="base"
     pagecolor="#ffffff"
     bordercolor="#666666"
     borderopacity="1.0"
     inkscape:pageopacity="1"
     inkscape:pageshadow="2"
     inkscape:zoom="16"
     inkscape:cx="-0.614573"
     inkscape:cy="5.0450956"
     inkscape:document-units="px"
     inkscape:current-layer="layer1"
     showgrid="false"
     inkscape:window-width="2560"
     inkscape:window-height="1364"
     inkscape:window-x="-9"
     inkscape:window-y="-9"
     inkscape:window-maximized="1" />
  <metadata
     id="metadata7">
    <rdf:RDF>
      <cc:Work
         rdf:about="">
        <dc:format>image/svg+xml</dc:format>
        <dc:type
           rdf:resource="http://purl.org/dc/dcmitype/StillImage" />
        <dc:title />
      </cc:Work>
    </rdf:RDF>
  </metadata>
  <g
     inkscape:label="Layer 1"
     inkscape:groupmode="layer"
     id="layer1"
     transform="translate(0,-1020.3622)">
    <path
       d="m 0,1020.3622 h 32 v 32 H 0 z"
       id="path5998"
       inkscape:connector-curvature="0"
       style="fill:none" />
    <path
       d="m 22.666667,1024.3622 h -16 C 5.193333,1024.3622 4,1025.5555 4,1027.0289 v 18.6666 c 0,1.4734 1.193333,2.6667 2.666667,2.6667 h 18.666666 c 1.473334,0 2.666667,-1.1933 2.666667,-2.6667 v -16 l -5.333333,-5.3333 z M 16,1045.6955 c -2.206667,0 -4,-1.7933 -4,-4 0,-2.2066 1.793333,-4 4,-4 2.206667,0 4,1.7934 4,4 0,2.2067 -1.793333,4 -4,4 z m 4,-13.3333 H 6.666667 v -5.3333 H 20 v 5.3333 z"
       id="path3906"
       inkscape:connector-curvature="0"
       style="fill:#000000;fill-opacity:1;stroke:none" />
  </g>
</svg>
