<?xml version="1.0" encoding="UTF-8" standalone="no"?>
<!-- Created with Inkscape (http://www.inkscape.org/) -->

<svg
   xmlns:dc="http://purl.org/dc/elements/1.1/"
   xmlns:cc="http://creativecommons.org/ns#"
   xmlns:rdf="http://www.w3.org/1999/02/22-rdf-syntax-ns#"
   xmlns:svg="http://www.w3.org/2000/svg"
   xmlns="http://www.w3.org/2000/svg"
   xmlns:sodipodi="http://sodipodi.sourceforge.net/DTD/sodipodi-0.dtd"
   xmlns:inkscape="http://www.inkscape.org/namespaces/inkscape"
   width="32"
   height="32"
   id="svg2"
   version="1.1"
   inkscape:version="0.48.5 r10040"
   sodipodi:docname="actionSwapLROff.svg"
   inkscape:export-filename="actionSwapLROn.png"
   inkscape:export-xdpi="90"
   inkscape:export-ydpi="90">
  <defs
     id="defs4" />
  <sodipodi:namedview
     id="base"
     pagecolor="#ffffff"
     bordercolor="#666666"
     borderopacity="1.0"
     inkscape:pageopacity="1"
     inkscape:pageshadow="2"
     inkscape:zoom="11.313709"
     inkscape:cx="-6.6176879"
     inkscape:cy="13.271382"
     inkscape:document-units="px"
     inkscape:current-layer="layer1"
     showgrid="false"
     inkscape:window-width="2560"
     inkscape:window-height="1364"
     inkscape:window-x="-9"
     inkscape:window-y="-9"
     inkscape:window-maximized="1" />
  <metadata
     id="metadata7">
    <rdf:RDF>
      <cc:Work
         rdf:about="">
        <dc:format>image/svg+xml</dc:format>
        <dc:type
           rdf:resource="http://purl.org/dc/dcmitype/StillImage" />
        <dc:title />
      </cc:Work>
    </rdf:RDF>
  </metadata>
  <g
     inkscape:label="Layer 1"
     inkscape:groupmode="layer"
     id="layer1"
     transform="translate(0,-1020.3622)">
    <path
       d="m 0,1020.3622 h 32 v 32 H 0 z"
       id="path5998"
       inkscape:connector-curvature="0"
       style="fill:none" />
    <path
       d="M 22.875 9.21875 C 20.100689 9.21875 17.706551 10.895578 16.65625 13.28125 L 20.34375 16.96875 L 20.34375 12.4375 L 21.8125 12.4375 L 21.8125 18.34375 L 25.40625 18.34375 L 25.40625 19.5625 L 22.9375 19.5625 L 25.59375 22.21875 C 27.979423 21.168344 29.65625 18.774022 29.65625 16 C 29.65625 12.2542 26.620693 9.21875 22.875 9.21875 z M 16.09375 16.125 C 16.160744 19.76934 19.105297 22.714246 22.75 22.78125 L 21.8125 21.84375 L 16.09375 16.125 z "
       transform="translate(0,1020.3622)"
       id="path3070"
       style="stroke:none;fill:#000000;fill-opacity:1" />
    <path
       d="M 8.9375 9.21875 C 5.19181 9.21875 2.15625 12.2542 2.15625 16 C 2.15625 19.7453 5.19181 22.78125 8.9375 22.78125 C 12.683193 22.78125 15.71875 19.7453 15.71875 16 C 15.71875 15.915044 15.721846 15.834198 15.71875 15.75 L 13.03125 13.0625 L 9.1875 9.21875 C 9.1033039 9.2156543 9.0224539 9.21875 8.9375 9.21875 z M 5.71875 12.40625 L 8.75 12.40625 C 9.514969 12.40625 10.090815 12.4963 10.4375 12.625 C 10.784174 12.7536 11.041661 12.9837 11.25 13.3125 C 11.458327 13.6413 11.562493 14.0143 11.5625 14.4375 C 11.562493 14.9746 11.409499 15.4001 11.09375 15.75 C 10.777989 16.0998 10.31575 16.31505 9.6875 16.40625 C 9.999995 16.58845 10.265294 16.81315 10.46875 17.03125 C 10.672195 17.24935 10.936192 17.6309 11.28125 18.1875 L 12.15625 19.59375 L 10.4375 19.59375 L 9.375 18.03125 C 9.003902 17.47455 8.761715 17.11355 8.625 16.96875 C 8.488278 16.82385 8.340491 16.70995 8.1875 16.65625 C 8.034502 16.60225 7.800778 16.59375 7.46875 16.59375 L 7.15625 16.59375 L 7.15625 19.59375 L 5.71875 19.59375 L 5.71875 12.40625 z M 7.15625 13.625 L 7.15625 15.4375 L 8.25 15.4375 C 8.943355 15.4375 9.35872 15.437 9.53125 15.375 C 9.703771 15.316 9.839839 15.2057 9.9375 15.0625 C 10.03515 14.9193 10.093745 14.74605 10.09375 14.53125 C 10.093745 14.29035 10.03483 14.0856 9.90625 13.9375 C 9.777664 13.7894 9.57812 13.69525 9.34375 13.65625 C 9.226558 13.64025 8.867184 13.625 8.28125 13.625 L 7.15625 13.625 z "
       transform="translate(0,1020.3622)"
       id="path3082"
       style="fill:#000000;fill-opacity:1;stroke:none" />
    <path
       id="path3122"
       d="m 4.6875,1025.0341 -1.71875,1.6875 0.5,0.5 6.1875,6.1875 8.78125,8.7813 5.5,5.5 1.71875,-1.6875 -20.96875,-20.9688 z"
       inkscape:connector-curvature="0"
       style="fill:#000000;fill-opacity:1;stroke:none" />
  </g>
</svg>
